<svg xmlns="http://www.w3.org/2000/svg" width="1200" height="800" viewBox="0 0 1200 800">
  <defs>
    <linearGradient id="bg" x1="0" y1="0" x2="1" y2="1">
      <stop offset="0" stop-color="#f0fdf4"/>
      <stop offset="1" stop-color="#f1f5f9"/>
    </linearGradient>
  </defs>
  <rect width="1200" height="800" fill="url(#bg)"/>
  <g opacity="0.9">
    <rect x="150" y="200" width="900" height="420" rx="34" fill="#ffffff" stroke="#e5e7eb" stroke-width="4"/>
    <g transform="translate(230,270)" fill="#111827" fill-opacity="0.08">
      <rect x="0" y="0" width="240" height="90" rx="24"/>
      <rect x="280" y="0" width="240" height="90" rx="24"/>
      <rect x="560" y="0" width="240" height="90" rx="24"/>
      <rect x="0" y="120" width="240" height="90" rx="24"/>
      <rect x="280" y="120" width="240" height="90" rx="24"/>
      <rect x="560" y="120" width="240" height="90" rx="24"/>
      <rect x="0" y="240" width="240" height="90" rx="24"/>
      <rect x="280" y="240" width="240" height="90" rx="24"/>
      <rect x="560" y="240" width="240" height="90" rx="24"/>
    </g>
  </g>
  <g opacity="0.55">
    <circle cx="190" cy="120" r="70" fill="#22c55e"/>
    <circle cx="1030" cy="140" r="62" fill="#2563eb"/>
  </g>
</svg>

