<svg xmlns="http://www.w3.org/2000/svg" width="1200" height="800" viewBox="0 0 1200 800">
  <defs>
    <linearGradient id="bg" x1="0" y1="0" x2="1" y2="1">
      <stop offset="0" stop-color="#eef2ff"/>
      <stop offset="1" stop-color="#ecfeff"/>
    </linearGradient>
    <linearGradient id="accent" x1="0" y1="0" x2="1" y2="0">
      <stop offset="0" stop-color="#2563eb" stop-opacity="0.85"/>
      <stop offset="1" stop-color="#0ea5e9" stop-opacity="0.85"/>
    </linearGradient>
  </defs>
  <rect width="1200" height="800" fill="url(#bg)"/>
  <g opacity="0.9">
    <rect x="110" y="190" width="520" height="360" rx="28" fill="#ffffff" stroke="#e5e7eb" stroke-width="4"/>
    <rect x="160" y="250" width="420" height="34" rx="17" fill="#e5e7eb"/>
    <rect x="160" y="310" width="360" height="24" rx="12" fill="#e5e7eb"/>
    <rect x="160" y="348" width="320" height="24" rx="12" fill="#e5e7eb"/>
    <rect x="160" y="400" width="210" height="56" rx="18" fill="url(#accent)"/>
  </g>
  <g opacity="0.92">
    <rect x="690" y="230" width="400" height="260" rx="28" fill="#0f172a" fill-opacity="0.06" stroke="#cbd5e1" stroke-width="4"/>
    <path d="M740 450h300" stroke="#94a3b8" stroke-width="10" stroke-linecap="round"/>
    <path d="M740 410h240" stroke="#94a3b8" stroke-width="10" stroke-linecap="round"/>
    <path d="M740 370h180" stroke="#94a3b8" stroke-width="10" stroke-linecap="round"/>
    <circle cx="790" cy="300" r="38" fill="#2563eb" fill-opacity="0.25"/>
    <circle cx="895" cy="300" r="38" fill="#0ea5e9" fill-opacity="0.25"/>
    <circle cx="1000" cy="300" r="38" fill="#22c55e" fill-opacity="0.20"/>
  </g>
  <g opacity="0.5">
    <circle cx="150" cy="110" r="60" fill="#2563eb"/>
    <circle cx="1110" cy="110" r="55" fill="#0ea5e9"/>
    <circle cx="1080" cy="710" r="80" fill="#22c55e"/>
  </g>
</svg>

